<svg width="100" height="100" viewBox="0 0 100 100" fill="none" xmlns="http://www.w3.org/2000/svg">
<path d="M49.9998 4C24.6358 4 3.99981 24.636 3.99981 50C3.99981 57.92 6.04581 65.708 9.92581 72.58L4.07381 93.46C3.88181 94.146 4.06781 94.882 4.56381 95.392C4.94581 95.786 5.46581 96 5.99981 96C6.15981 96 6.32181 95.98 6.47981 95.942L28.2718 90.544C34.9258 94.116 42.4198 96 49.9998 96C75.3638 96 95.9998 75.364 95.9998 50C95.9998 24.636 75.3638 4 49.9998 4ZM73.1398 66.232C72.1558 68.956 67.4358 71.442 65.1678 71.776C63.1318 72.074 60.5558 72.202 57.7278 71.314C56.0138 70.774 53.8138 70.058 50.9958 68.856C39.1498 63.804 31.4138 52.026 30.8218 51.248C30.2318 50.47 25.9998 44.926 25.9998 39.188C25.9998 33.45 29.0498 30.628 30.1338 29.46C31.2178 28.292 32.4958 28 33.2838 28C34.0718 28 34.8578 28.01 35.5478 28.042C36.2738 28.078 37.2478 27.768 38.2058 30.044C39.1898 32.38 41.5518 38.118 41.8438 38.704C42.1398 39.288 42.3358 39.97 41.9438 40.748C41.5518 41.526 41.3558 42.012 40.7638 42.694C40.1718 43.376 39.5238 44.214 38.9918 44.738C38.3998 45.32 37.7858 45.95 38.4738 47.118C39.1618 48.286 41.5318 52.104 45.0438 55.196C49.5538 59.168 53.3598 60.4 54.5398 60.984C55.7198 61.568 56.4098 61.47 57.0978 60.692C57.7858 59.912 60.0498 57.286 60.8358 56.12C61.6218 54.954 62.4098 55.146 63.4938 55.536C64.5778 55.924 70.3838 58.744 71.5638 59.328C72.7438 59.912 73.5318 60.204 73.8278 60.69C74.1238 61.174 74.1238 63.51 73.1398 66.232Z" fill="#595959"/>
</svg>
