<svg width="99" height="94" viewBox="0 0 99 94" fill="none" xmlns="http://www.w3.org/2000/svg">
<path d="M18.1566 29.7798V78.7977H32.3061" stroke="black" stroke-width="5" stroke-linecap="square"/>
<path d="M81.8294 29.7798V78.7977H67.6799" stroke="black" stroke-width="5" stroke-linecap="square"/>
<path fill-rule="evenodd" clip-rule="evenodd" d="M36.3291 40.5454C36.3035 32.8404 42.5292 26.6147 50.2342 26.6403C57.9394 26.6657 64.2063 32.9326 64.2317 40.6379C64.251 46.5313 60.6124 51.5666 55.4404 53.5924C54.6741 53.8924 53.8935 54.3533 53.2188 55.028L50.2439 58.0028C48.7354 59.5114 48.7437 61.9652 50.262 63.4834L53.7337 66.9551L50.2849 70.404C48.7764 71.9124 48.7847 74.3663 50.303 75.8846L53.7749 79.3565L48.8747 84.2566L45.7642 81.1461L45.6865 57.6655C45.6786 55.2786 44.32 53.3296 42.6397 52.2161C38.8457 49.7021 36.3451 45.4094 36.3291 40.5454ZM50.2136 20.4398C39.0841 20.4029 30.0915 29.3955 30.1284 40.525C30.1517 47.558 33.7776 53.7594 39.2383 57.378C39.4092 57.4913 39.4797 57.6275 39.4858 57.65L39.5657 81.7676C39.5698 83.0009 40.0636 84.1854 40.9387 85.0605L46.6823 90.8041C47.9089 92.0307 49.8917 92.0376 51.1103 90.819L59.8126 82.1167C61.321 80.6083 61.3128 78.1544 59.7945 76.6361L56.3226 73.1642L59.7714 69.7154C61.2799 68.2068 61.2718 65.7533 59.7533 64.2348L56.2816 60.7631L57.6149 59.4298C57.6197 59.4259 57.6538 59.3997 57.7348 59.3679C65.1923 56.4467 70.4605 49.1831 70.4323 40.6584C70.3955 29.5289 61.3432 20.4766 50.2136 20.4398ZM50.2855 42.1417C52.8539 42.1502 54.929 40.0751 54.9205 37.5067C54.9121 34.9383 52.8231 32.8493 50.2547 32.8409C47.6863 32.8324 45.6112 34.9075 45.6197 37.4759C45.6282 40.0443 47.7171 42.1332 50.2855 42.1417Z" fill="black"/>
<path d="M3.50174 37.865L48.9823 3.50195" stroke="black" stroke-width="5" stroke-linecap="square"/>
<path d="M95.4735 37.865L49.993 3.50195" stroke="black" stroke-width="5" stroke-linecap="square"/>
<path d="M26.5288 16.3227C26.5288 16.1586 26.5288 9.68925 26.5288 6.4751" stroke="black" stroke-width="8" stroke-linecap="square"/>
</svg>
