<svg width="70" height="70" viewBox="0 0 70 70" fill="none" xmlns="http://www.w3.org/2000/svg">
<path d="M47.2222 1.66669C41.6232 1.66669 36.2535 3.89089 32.2944 7.84999C28.3353 11.8091 26.1111 17.1788 26.1111 22.7778C26.1111 28.3768 28.3353 33.7465 32.2944 37.7056C36.2535 41.6647 41.6232 43.8889 47.2222 43.8889C52.8212 43.8889 58.1909 41.6647 62.15 37.7056C66.1091 33.7465 68.3333 28.3768 68.3333 22.7778C68.3333 17.1788 66.1091 11.8091 62.15 7.84999C58.1909 3.89089 52.8212 1.66669 47.2222 1.66669Z" fill="white"/>
<path d="M47.2225 17.2222C45.7491 17.2222 44.336 17.8075 43.2942 18.8494C42.2523 19.8912 41.667 21.3043 41.667 22.7777C41.667 24.2511 42.2523 25.6642 43.2942 26.7061C44.336 27.748 45.7491 28.3333 47.2225 28.3333C48.696 28.3333 50.109 27.748 51.1509 26.7061C52.1928 25.6642 52.7781 24.2511 52.7781 22.7777C52.7781 21.3043 52.1928 19.8912 51.1509 18.8494C50.109 17.8075 48.696 17.2222 47.2225 17.2222Z" fill="#71C2FF"/>
<path d="M29.0001 29.8889L35.0001 35V46.1111H23.889V57.2222H12.7779V68.3334H1.66675V57.2222L29.0001 29.8889Z" fill="white"/>
<path d="M47.2221 45.5555C34.6666 45.5555 24.4443 35.3333 24.4443 22.7778C24.4443 10.2222 34.6666 0 47.2221 0C59.7777 0 69.9999 10.2222 69.9999 22.7778C69.9999 35.3333 59.7777 45.5555 47.2221 45.5555ZM47.2221 3.33333C36.4999 3.33333 27.7777 12.0556 27.7777 22.7778C27.7777 33.5 36.4999 42.2222 47.2221 42.2222C57.9443 42.2222 66.6665 33.5 66.6665 22.7778C66.6665 12.0556 57.9443 3.33333 47.2221 3.33333Z" fill="#444B54"/>
<path d="M12.7778 70H1.66667C0.722222 70 0 69.2778 0 68.3333V57.2222C0 56.7778 0.166667 56.3333 0.5 56.0555L21.7778 34.7778C22.4444 34.1111 23.5 34.1111 24.1111 34.7778C24.7778 35.4444 24.7778 36.5 24.1111 37.1111L3.33333 57.8889V66.6667H11.1111V57.2222C11.1111 56.2778 11.8333 55.5555 12.7778 55.5555H22.2222V46.1111C22.2222 45.1667 22.9444 44.4444 23.8889 44.4444H33.3333C34.2778 44.4444 35 45.1667 35 46.1111C35 47.0555 34.2778 47.7778 33.3333 47.7778H25.5556V57.2222C25.5556 58.1667 24.8333 58.8889 23.8889 58.8889H14.4444V68.3333C14.4444 69.2778 13.7222 70 12.7778 70Z" fill="#444B54"/>
</svg>
