<svg width="56" height="70" viewBox="0 0 56 70" fill="none" xmlns="http://www.w3.org/2000/svg">
<path d="M42.5833 68.3333H13.4167C6.97083 68.3333 1.75 63.3611 1.75 57.2222V29.4444C1.75 23.3055 6.97083 18.3333 13.4167 18.3333H42.5833C49.0292 18.3333 54.25 23.3055 54.25 29.4444V57.2222C54.25 63.3611 49.0292 68.3333 42.5833 68.3333Z" fill="white"/>
<path d="M33.8337 43.3334C33.8337 40.2667 31.2203 37.7778 28.0003 37.7778C24.7803 37.7778 22.167 40.2667 22.167 43.3334C22.167 45.8223 23.882 47.9278 26.2503 48.6334V54.4445C26.2503 55.3667 27.032 56.1112 28.0003 56.1112C28.9687 56.1112 29.7503 55.3667 29.7503 54.4445V48.6334C32.1187 47.9278 33.8337 45.8223 33.8337 43.3334Z" fill="#71C2FF"/>
<path d="M46.0833 17.1111V10C46.0833 4.48333 41.3758 0 35.5833 0H20.4167C14.6242 0 9.91667 4.48333 9.91667 10V17.1111C4.21167 18.5833 0 23.55 0 29.4444V57.2222C0 64.2667 6.02 70 13.4167 70H42.5833C49.98 70 56 64.2667 56 57.2222V29.4444C56 23.55 51.7883 18.5833 46.0833 17.1111ZM13.4167 10C13.4167 6.32222 16.555 3.33333 20.4167 3.33333H35.5833C39.445 3.33333 42.5833 6.32222 42.5833 10V16.6667H13.4167V10ZM52.5 57.2222C52.5 62.4278 48.0492 66.6667 42.5833 66.6667H13.4167C7.95083 66.6667 3.5 62.4278 3.5 57.2222V29.4444C3.5 24.2389 7.95083 20 13.4167 20H42.5833C48.0492 20 52.5 24.2389 52.5 29.4444V57.2222Z" fill="#444B54"/>
</svg>
